# xmcd
#
# Track frame offsets: 
#        150
#        13435
#        31196
#        53877
#        71969
#        86556
#        103039
#        123931
#        141129
#        160060
#
# Disc length: 2529 seconds
#
# Revision: 0
# Processed by: cddbd v1.5.2PL0 Copyright (c) Steve Scherf et al.
# Submitted via: ExactAudioCopyFreeDBPlugin 1.0
#
DISCID=8709df0a
DTITLE=Marianne Murphy - No Longer Blue
DYEAR=2003
DGENRE=Country
TTITLE0=No Longer Blue
TTITLE1=Irish Whiskey On The Side
TTITLE2=Evelyn
TTITLE3=Woods In The Summer
TTITLE4=Love Always Finds A Way
TTITLE5=You Said You Loved Me
TTITLE6=Feel Loves Caress
TTITLE7=Empty Stage
TTITLE8=Ring Of Wisdom
TTITLE9=Sweet Pea''s Lullabye
EXTD=
EXTT0=
EXTT1=
EXTT2=
EXTT3=
EXTT4=
EXTT5=
EXTT6=
EXTT7=
EXTT8=
EXTT9=
PLAYORDER=
